<svg xmlns="http://www.w3.org/2000/svg" xmlns:xlink="http://www.w3.org/1999/xlink" width="500" zoomAndPan="magnify" viewBox="0 0 375 374.999991" height="500" preserveAspectRatio="xMidYMid meet" version="1.0"><defs><g/><clipPath id="9be184ab52"><path d="M 113.773438 101.058594 L 141.785156 101.058594 L 141.785156 129.683594 L 113.773438 129.683594 Z M 113.773438 101.058594 " clip-rule="nonzero"/></clipPath><clipPath id="dc75294451"><path d="M 0.773438 0.0585938 L 28.785156 0.0585938 L 28.785156 28.683594 L 0.773438 28.683594 Z M 0.773438 0.0585938 " clip-rule="nonzero"/></clipPath><clipPath id="5c129a57a0"><rect x="0" width="29" y="0" height="29"/></clipPath><clipPath id="b160d99fe6"><path d="M 148.992188 101.058594 L 177.007812 101.058594 L 177.007812 129.683594 L 148.992188 129.683594 Z M 148.992188 101.058594 " clip-rule="nonzero"/></clipPath><clipPath id="bcf7a86927"><path d="M 0.992188 0.0585938 L 29.007812 0.0585938 L 29.007812 28.683594 L 0.992188 28.683594 Z M 0.992188 0.0585938 " clip-rule="nonzero"/></clipPath><clipPath id="a55881bd99"><rect x="0" width="30" y="0" height="29"/></clipPath><clipPath id="2b4b4f108d"><path d="M 184.402344 101.058594 L 212.417969 101.058594 L 212.417969 129.683594 L 184.402344 129.683594 Z M 184.402344 101.058594 " clip-rule="nonzero"/></clipPath><clipPath id="086af4261a"><path d="M 0.402344 0.0585938 L 28.417969 0.0585938 L 28.417969 28.683594 L 0.402344 28.683594 Z M 0.402344 0.0585938 " clip-rule="nonzero"/></clipPath><clipPath id="02940e66d3"><rect x="0" width="29" y="0" height="29"/></clipPath><clipPath id="2545fcabba"><path d="M 113.773438 137.441406 L 141.785156 137.441406 L 141.785156 166.070312 L 113.773438 166.070312 Z M 113.773438 137.441406 " clip-rule="nonzero"/></clipPath><clipPath id="7b8a84dc36"><path d="M 0.773438 0.441406 L 28.785156 0.441406 L 28.785156 29.070312 L 0.773438 29.070312 Z M 0.773438 0.441406 " clip-rule="nonzero"/></clipPath><clipPath id="6927797c8f"><rect x="0" width="29" y="0" height="30"/></clipPath><clipPath id="702f96f723"><path d="M 148.992188 137.441406 L 177.007812 137.441406 L 177.007812 166.070312 L 148.992188 166.070312 Z M 148.992188 137.441406 " clip-rule="nonzero"/></clipPath><clipPath id="70732afc73"><path d="M 0.992188 0.441406 L 29.007812 0.441406 L 29.007812 29.070312 L 0.992188 29.070312 Z M 0.992188 0.441406 " clip-rule="nonzero"/></clipPath><clipPath id="ce5108ee07"><rect x="0" width="30" y="0" height="30"/></clipPath><clipPath id="758c98bcf0"><path d="M 184.402344 137.441406 L 212.417969 137.441406 L 212.417969 166.070312 L 184.402344 166.070312 Z M 184.402344 137.441406 " clip-rule="nonzero"/></clipPath><clipPath id="f83115cfcd"><path d="M 0.402344 0.441406 L 28.417969 0.441406 L 28.417969 29.070312 L 0.402344 29.070312 Z M 0.402344 0.441406 " clip-rule="nonzero"/></clipPath><clipPath id="f288632bf2"><rect x="0" width="29" y="0" height="30"/></clipPath><clipPath id="dc0f1ffa0e"><path d="M 113.773438 174.136719 L 141.785156 174.136719 L 141.785156 202.761719 L 113.773438 202.761719 Z M 113.773438 174.136719 " clip-rule="nonzero"/></clipPath><clipPath id="c1e31e5e88"><path d="M 0.773438 0.136719 L 28.785156 0.136719 L 28.785156 28.761719 L 0.773438 28.761719 Z M 0.773438 0.136719 " clip-rule="nonzero"/></clipPath><clipPath id="e77ea29d4e"><rect x="0" width="29" y="0" height="29"/></clipPath><clipPath id="62ee3e69e2"><path d="M 148.992188 174.136719 L 177.007812 174.136719 L 177.007812 202.761719 L 148.992188 202.761719 Z M 148.992188 174.136719 " clip-rule="nonzero"/></clipPath><clipPath id="e8d2bfcc95"><path d="M 0.992188 0.136719 L 29.007812 0.136719 L 29.007812 28.761719 L 0.992188 28.761719 Z M 0.992188 0.136719 " clip-rule="nonzero"/></clipPath><clipPath id="13840f9ce7"><rect x="0" width="30" y="0" height="29"/></clipPath><clipPath id="06191ff358"><path d="M 184.402344 174.136719 L 212.417969 174.136719 L 212.417969 202.761719 L 184.402344 202.761719 Z M 184.402344 174.136719 " clip-rule="nonzero"/></clipPath><clipPath id="70d5b83b85"><path d="M 0.402344 0.136719 L 28.417969 0.136719 L 28.417969 28.761719 L 0.402344 28.761719 Z M 0.402344 0.136719 " clip-rule="nonzero"/></clipPath><clipPath id="734203d1b1"><rect x="0" width="29" y="0" height="29"/></clipPath><clipPath id="7a83145bca"><path d="M 171.496094 0.65625 L 308.558594 0.65625 L 308.558594 137.730469 L 171.496094 137.730469 Z M 171.496094 0.65625 " clip-rule="nonzero"/></clipPath><clipPath id="bbce8021d8"><rect x="0" width="309" y="0" height="276"/></clipPath></defs><g transform="matrix(1, 0, 0, 1, 50, 50)"><g clip-path="url(#bbce8021d8)"><g clip-path="url(#9be184ab52)"><g transform="matrix(1, 0, 0, 1, 113, 101)"><g clip-path="url(#5c129a57a0)"><g clip-path="url(#dc75294451)"><path fill="#5585e3" d="M 0.773438 0.0585938 L 28.785156 0.0585938 L 28.785156 28.730469 L 0.773438 28.730469 Z M 0.773438 0.0585938 " fill-opacity="1" fill-rule="nonzero"/></g></g></g></g><g clip-path="url(#b160d99fe6)"><g transform="matrix(1, 0, 0, 1, 148, 101)"><g clip-path="url(#a55881bd99)"><g clip-path="url(#bcf7a86927)"><path fill="#5585e3" d="M 0.992188 0.0585938 L 29.007812 0.0585938 L 29.007812 28.730469 L 0.992188 28.730469 Z M 0.992188 0.0585938 " fill-opacity="1" fill-rule="nonzero"/></g></g></g></g><g clip-path="url(#2b4b4f108d)"><g transform="matrix(1, 0, 0, 1, 184, 101)"><g clip-path="url(#02940e66d3)"><g clip-path="url(#086af4261a)"><path fill="#5585e3" d="M 0.402344 0.0585938 L 28.417969 0.0585938 L 28.417969 28.730469 L 0.402344 28.730469 Z M 0.402344 0.0585938 " fill-opacity="1" fill-rule="nonzero"/></g></g></g></g><g clip-path="url(#2545fcabba)"><g transform="matrix(1, 0, 0, 1, 113, 137)"><g clip-path="url(#6927797c8f)"><g clip-path="url(#7b8a84dc36)"><path fill="#573ed1" d="M 0.773438 0.441406 L 28.785156 0.441406 L 28.785156 29.113281 L 0.773438 29.113281 Z M 0.773438 0.441406 " fill-opacity="1" fill-rule="nonzero"/></g></g></g></g><g clip-path="url(#702f96f723)"><g transform="matrix(1, 0, 0, 1, 148, 137)"><g clip-path="url(#ce5108ee07)"><g clip-path="url(#70732afc73)"><path fill="#573ed1" d="M 0.992188 0.441406 L 29.007812 0.441406 L 29.007812 29.113281 L 0.992188 29.113281 Z M 0.992188 0.441406 " fill-opacity="1" fill-rule="nonzero"/></g></g></g></g><g clip-path="url(#758c98bcf0)"><g transform="matrix(1, 0, 0, 1, 184, 137)"><g clip-path="url(#f288632bf2)"><g clip-path="url(#f83115cfcd)"><path fill="#573ed1" d="M 0.402344 0.441406 L 28.417969 0.441406 L 28.417969 29.113281 L 0.402344 29.113281 Z M 0.402344 0.441406 " fill-opacity="1" fill-rule="nonzero"/></g></g></g></g><g clip-path="url(#dc0f1ffa0e)"><g transform="matrix(1, 0, 0, 1, 113, 174)"><g clip-path="url(#e77ea29d4e)"><g clip-path="url(#c1e31e5e88)"><path fill="#39108a" d="M 0.773438 0.136719 L 28.785156 0.136719 L 28.785156 28.808594 L 0.773438 28.808594 Z M 0.773438 0.136719 " fill-opacity="1" fill-rule="nonzero"/></g></g></g></g><g clip-path="url(#62ee3e69e2)"><g transform="matrix(1, 0, 0, 1, 148, 174)"><g clip-path="url(#13840f9ce7)"><g clip-path="url(#e8d2bfcc95)"><path fill="#39108a" d="M 0.992188 0.136719 L 29.007812 0.136719 L 29.007812 28.808594 L 0.992188 28.808594 Z M 0.992188 0.136719 " fill-opacity="1" fill-rule="nonzero"/></g></g></g></g><g clip-path="url(#06191ff358)"><g transform="matrix(1, 0, 0, 1, 184, 174)"><g clip-path="url(#734203d1b1)"><g clip-path="url(#70d5b83b85)"><path fill="#39108a" d="M 0.402344 0.136719 L 28.417969 0.136719 L 28.417969 28.808594 L 0.402344 28.808594 Z M 0.402344 0.136719 " fill-opacity="1" fill-rule="nonzero"/></g></g></g></g><g clip-path="url(#7a83145bca)"><path fill="#2c0678" d="M 308.273438 69.0625 C 245.824219 72.328125 243.164062 74.984375 239.902344 137.433594 C 236.605469 74.984375 233.945312 72.328125 171.496094 69.0625 C 233.945312 65.765625 236.605469 63.105469 239.902344 0.65625 C 243.164062 63.105469 245.824219 65.765625 308.273438 69.0625 Z M 308.273438 69.0625 " fill-opacity="1" fill-rule="nonzero"/></g><g fill="#000000" fill-opacity="1"><g transform="translate(1.000001, 215.80122)"><g><path d="M 98.671875 -98.671875 L 98.671875 -42.28125 L 84.578125 -42.28125 L 84.578125 -28.1875 L 70.484375 -28.1875 L 70.484375 -14.09375 L 14.09375 -14.09375 L 14.09375 -28.1875 L 0 -28.1875 L 0 -98.671875 L 14.09375 -98.671875 L 14.09375 -112.765625 L 84.578125 -112.765625 L 84.578125 -98.671875 Z M 70.484375 -98.671875 L 28.1875 -98.671875 L 28.1875 -28.1875 L 56.375 -28.1875 L 56.375 -42.28125 L 42.28125 -42.28125 L 42.28125 -56.375 L 70.484375 -56.375 Z M 84.578125 -14.09375 L 84.578125 -28.1875 L 98.671875 -28.1875 L 98.671875 -14.09375 Z M 84.578125 -14.09375 "/></g></g></g><g fill="#000000" fill-opacity="1"><g transform="translate(16.236344, 256.460086)"><g><path d="M 30.078125 -23 C 32.535156 -20.320312 33.765625 -17.035156 33.765625 -13.140625 C 33.765625 -9.253906 32.535156 -5.960938 30.078125 -3.265625 C 27.617188 -0.578125 24.5 0.765625 20.71875 0.765625 C 17.238281 0.765625 14.375 -0.320312 12.125 -2.5 L 12.125 13.296875 L 3.0625 13.296875 L 3.0625 -26.25 L 12.015625 -26.25 L 12.015625 -23.28125 L 12.125 -23.28125 C 14.375 -25.769531 17.238281 -27.015625 20.71875 -27.015625 C 24.5 -27.015625 27.617188 -25.675781 30.078125 -23 Z M 22.375 -8.6875 C 23.550781 -9.851562 24.140625 -11.335938 24.140625 -13.140625 C 24.140625 -14.953125 23.578125 -16.425781 22.453125 -17.5625 C 21.328125 -18.707031 19.84375 -19.28125 18 -19.28125 C 16.226562 -19.28125 14.769531 -18.703125 13.625 -17.546875 C 12.488281 -16.390625 11.921875 -14.921875 11.921875 -13.140625 C 11.921875 -11.335938 12.507812 -9.851562 13.6875 -8.6875 C 14.863281 -7.53125 16.300781 -6.953125 18 -6.953125 C 19.738281 -6.953125 21.195312 -7.53125 22.375 -8.6875 Z M 22.375 -8.6875 "/></g></g></g><g fill="#000000" fill-opacity="1"><g transform="translate(54.652257, 256.460086)"><g><path d="M 4.859375 -3.25 C 2.398438 -5.925781 1.171875 -9.207031 1.171875 -13.09375 C 1.171875 -16.976562 2.398438 -20.269531 4.859375 -22.96875 C 7.316406 -25.664062 10.4375 -27.015625 14.21875 -27.015625 C 17.695312 -27.015625 20.5625 -25.921875 22.8125 -23.734375 L 22.8125 -26.25 L 31.875 -26.25 L 31.875 0 L 22.921875 0 L 22.921875 -2.96875 L 22.8125 -2.96875 C 20.5625 -0.476562 17.695312 0.765625 14.21875 0.765625 C 10.4375 0.765625 7.316406 -0.570312 4.859375 -3.25 Z M 12.5625 -17.546875 C 11.382812 -16.390625 10.796875 -14.90625 10.796875 -13.09375 C 10.796875 -11.289062 11.359375 -9.816406 12.484375 -8.671875 C 13.609375 -7.523438 15.09375 -6.953125 16.9375 -6.953125 C 18.707031 -6.953125 20.160156 -7.53125 21.296875 -8.6875 C 22.441406 -9.851562 23.015625 -11.320312 23.015625 -13.09375 C 23.015625 -14.90625 22.425781 -16.390625 21.25 -17.546875 C 20.070312 -18.703125 18.632812 -19.28125 16.9375 -19.28125 C 15.195312 -19.28125 13.738281 -18.703125 12.5625 -17.546875 Z M 12.5625 -17.546875 "/></g></g></g><g fill="#000000" fill-opacity="1"><g transform="translate(93.068169, 256.460086)"><g><path d="M 3.0625 0 L 3.0625 -26.25 L 12.125 -26.25 L 12.125 -22.453125 L 12.21875 -22.453125 C 12.289062 -22.585938 12.40625 -22.757812 12.5625 -22.96875 C 12.71875 -23.175781 13.050781 -23.535156 13.5625 -24.046875 C 14.070312 -24.554688 14.613281 -25.015625 15.1875 -25.421875 C 15.769531 -25.828125 16.519531 -26.191406 17.4375 -26.515625 C 18.363281 -26.847656 19.304688 -27.015625 20.265625 -27.015625 C 21.242188 -27.015625 22.210938 -26.875 23.171875 -26.59375 C 24.128906 -26.320312 24.828125 -26.050781 25.265625 -25.78125 L 25.984375 -25.375 L 22.203125 -17.703125 C 21.078125 -18.648438 19.507812 -19.125 17.5 -19.125 C 16.40625 -19.125 15.460938 -18.882812 14.671875 -18.40625 C 13.890625 -17.9375 13.335938 -17.359375 13.015625 -16.671875 C 12.691406 -15.992188 12.460938 -15.414062 12.328125 -14.9375 C 12.191406 -14.457031 12.125 -14.082031 12.125 -13.8125 L 12.125 0 Z M 3.0625 0 "/></g></g></g><g fill="#000000" fill-opacity="1"><g transform="translate(122.020821, 256.460086)"><g><path d="M 33.046875 -26.25 L 20.5625 -13.703125 L 34.28125 0 L 22.609375 0 L 12.125 -10.484375 L 12.125 0 L 3.0625 0 L 3.0625 -44 L 12.125 -44 L 12.125 -17.09375 L 21.28125 -26.25 Z M 33.046875 -26.25 "/></g></g></g><g fill="#000000" fill-opacity="1"><g transform="translate(158.544068, 256.460086)"><g><path d="M 3.9375 -40.859375 C 5 -41.921875 6.257812 -42.453125 7.71875 -42.453125 C 9.1875 -42.453125 10.445312 -41.921875 11.5 -40.859375 C 12.5625 -39.804688 13.09375 -38.546875 13.09375 -37.078125 C 13.09375 -35.617188 12.5625 -34.359375 11.5 -33.296875 C 10.445312 -32.242188 9.1875 -31.71875 7.71875 -31.71875 C 6.257812 -31.71875 5 -32.242188 3.9375 -33.296875 C 2.882812 -34.359375 2.359375 -35.617188 2.359375 -37.078125 C 2.359375 -38.546875 2.882812 -39.804688 3.9375 -40.859375 Z M 3.0625 -26.25 L 3.0625 0 L 12.125 0 L 12.125 -26.25 Z M 3.0625 -26.25 "/></g></g></g><g fill="#000000" fill-opacity="1"><g transform="translate(177.470769, 256.460086)"><g><path d="M 3.0625 0 L 3.0625 -26.25 L 12.125 -26.25 L 12.125 -23.484375 L 12.21875 -23.484375 C 14.570312 -25.835938 17.082031 -27.015625 19.75 -27.015625 C 21.039062 -27.015625 22.328125 -26.84375 23.609375 -26.5 C 24.890625 -26.15625 26.117188 -25.625 27.296875 -24.90625 C 28.472656 -24.195312 29.425781 -23.1875 30.15625 -21.875 C 30.882812 -20.5625 31.25 -19.035156 31.25 -17.296875 L 31.25 0 L 22.203125 0 L 22.203125 -14.828125 C 22.203125 -16.191406 21.765625 -17.382812 20.890625 -18.40625 C 20.023438 -19.4375 18.894531 -19.953125 17.5 -19.953125 C 16.132812 -19.953125 14.894531 -19.421875 13.78125 -18.359375 C 12.675781 -17.304688 12.125 -16.128906 12.125 -14.828125 L 12.125 0 Z M 3.0625 0 "/></g></g></g></g></g></svg>